<?xml version="1.0" encoding="UTF-8" standalone="no"?><!DOCTYPE svg PUBLIC "-//W3C//DTD SVG 1.1//EN" "http://www.w3.org/Graphics/SVG/1.1/DTD/svg11.dtd"><svg width="100%" height="100%" viewBox="0 0 2000 2000" version="1.1" xmlns="http://www.w3.org/2000/svg" xmlns:xlink="http://www.w3.org/1999/xlink" xml:space="preserve" xmlns:serif="http://www.serif.com/" style="fill-rule:evenodd;clip-rule:evenodd;stroke-linejoin:round;stroke-miterlimit:2;"><g><path d="M1874.564,1434.721c-89.647,47.397 -281.813,-8.639 -276.242,34.462c3.614,28.044 37.26,81.668 31.764,115.694c-2.952,18.197 -17.118,30.795 -53.124,30.795c-103.26,0 -202.719,-99.092 -223.93,-77.566c-18.742,19.064 6.64,118.929 -32.426,132.878c-5.091,1.884 -11.324,2.222 -18.888,0.724c-40.286,-7.963 -122.294,-35.524 -195.192,-43.438c-0.037,0 -0.037,0 -0.075,-0.049c-45.414,-4.924 -87.286,-2.222 -113.33,17.615c-67.807,51.743 -177.225,193.936 -201.095,107.731c-32.392,-116.805 -97.098,-215.461 -175.16,-146.489c-56.959,50.295 -113.551,82.246 -135.391,62.311c-8.08,-7.337 -11.436,-21.766 -8.226,-45.082c1.586,-11.679 1.844,-22.783 0.774,-33.111c-6.677,-65.835 -66.588,-102.469 -171.804,-87.556c-92.449,13.078 -174.902,1.351 -194.639,-12.647c-6.236,-4.391 -6.198,-9.025 1.77,-13.176c33.201,-17.229 163.17,-107.731 219.504,-133.602c56.334,-25.872 120.633,-112.028 99.864,-249.927c-1.844,-12.163 -3.247,-26.645 -4.242,-43.007c-10.699,-169.272 18.113,-536.387 18.113,-536.387l1157.908,-2.893c0,0 17.155,300.893 44.123,533.298c14.129,121.777 30.952,224.731 49.398,255.815c42.534,71.723 187.333,83.886 200.983,109.468c3.58,6.714 -1.844,14.291 -20.437,24.138Z" style="fill:#a26339;fill-rule:nonzero;"/><path d="M1874.564,1434.721c-89.647,47.397 -281.813,-8.639 -276.242,34.462c3.614,28.044 37.26,81.668 31.764,115.694c-2.952,18.197 -17.118,30.795 -53.124,30.795c-103.26,0 -202.719,-99.092 -223.93,-77.566c-18.742,19.064 6.64,118.929 -32.426,132.878c-5.091,1.884 -11.324,2.222 -18.888,0.724c-40.286,-7.963 -122.294,-35.524 -195.192,-43.438c-0.037,0 -0.037,0 -0.075,-0.049c-45.414,-4.924 -87.286,-2.222 -113.33,17.615c-67.807,51.743 -177.225,193.936 -201.095,107.731c-32.392,-116.805 -97.098,-215.461 -175.16,-146.489c-56.959,50.295 -113.551,82.246 -135.391,62.311c-8.08,-7.337 -11.436,-21.766 -8.226,-45.082c1.586,-11.679 1.844,-22.783 0.774,-33.111c-6.677,-65.835 -66.588,-102.469 -171.804,-87.556c-92.449,13.078 -174.902,1.351 -194.639,-12.647c-6.236,-4.391 -6.198,-9.025 1.77,-13.176c33.201,-17.229 163.17,-107.731 219.504,-133.602c56.334,-25.872 120.633,-112.028 99.864,-249.927c-1.844,-12.163 -3.247,-26.645 -4.242,-43.007c18.188,-18.535 37.113,-11.003 58.399,44.744c55.631,145.863 64.486,287.44 230.716,205.918c166.234,-81.521 225.037,-79.986 285.983,-52.456c51.306,23.177 68.243,109.213 169.914,18.133c101.636,-91.08 118.76,-94.607 214.12,-42.519c116.726,63.76 130.291,11.446 174.305,-23.267c46.191,-36.428 48.667,-118.648 86.701,-156.535c14.129,121.777 30.952,224.731 49.398,255.815c42.534,71.723 187.333,83.886 200.983,109.468c3.585,6.714 -1.839,14.291 -20.431,24.138Z" style="fill:#9a5c33;fill-rule:nonzero;"/><path d="M484.342,308.962c0,0 18.475,-6.102 34.672,19.075c9.661,15.015 28.789,-9.671 33.709,-25.932c4.919,-16.261 24.593,-26.269 31.698,-10.538c7.105,15.732 20.77,28.326 36.617,17.023c15.85,-11.303 37.71,-6.297 52.467,27.313c14.758,33.606 -53.015,230.251 -114.773,198.788c-61.758,-31.463 -84.713,-135.148 -84.713,-135.148l10.323,-90.581Z" style="fill:#a26339;fill-rule:nonzero;"/><path d="M442.422,519.169c0,0 4.853,-139.194 35.854,-204.485c4.185,-8.811 14.181,-7.885 17.373,1.614c4.242,12.624 9.015,29.744 10.171,45.555c2.186,29.898 17.488,127.358 17.488,127.358l-80.887,29.958Z" style="fill:#8d5233;fill-rule:nonzero;"/><g><g><path d="M1575.438,575.573c2.398,6.676 3.921,14.155 2.014,20.01c-1.48,4.511 -5.831,8.631 -11.011,12.14c-3.614,7.355 -8.507,13.791 -15.374,18.824c-8.545,6.271 -22.141,13.131 -38.613,20.235c-11.227,14.377 -34.457,18.4 -49.725,19.432c-5.691,2.068 -11.453,4.136 -17.239,6.192c-3.623,5.978 -11.978,14.977 -30.731,19.991c-15.136,4.042 -37.257,7.509 -55.362,9.93c-10.558,3.768 -19.943,7.265 -27.553,10.376c-3.858,1.58 -8.467,3.152 -13.685,4.721c-11.08,8.815 -33.826,20.468 -79.461,26.243c-25.299,3.201 -62.722,3.88 -101.891,3.314c-37.807,3.73 -70.664,5.674 -87.667,4.946c-26.222,-1.126 -68.823,-4.976 -122.248,-9.191c-57.785,3.88 -79.163,-5.723 -79.163,-5.723c0,0 -25.345,6.271 -59.704,4.477c-14.233,-0.751 -29.776,-5.209 -43.094,-10.185c-115.978,-8.35 -182.609,-43.243 -195.327,-64.42c-1.279,-2.139 -2.891,-4.541 -4.744,-7.183c-24.911,-8.095 -36.585,-16.73 -37.985,-26.292c-0.772,-5.198 2.209,-11.093 2.645,-16.839c-4.905,-5.603 -9.993,-11.318 -15.13,-17.023c-19.444,-7.051 -28.19,-17.195 -26.237,-28.818c-4.222,-4.612 -8.292,-9.037 -12.15,-13.221c-28.663,-31.118 -9.138,-96.45 32.524,-129.32l0,-0.011c7.24,-12.515 25.789,-19.931 41.404,-24.127c15.873,-8.834 33.247,-18.858 51.429,-29.324c0.026,-0.011 0.026,-0.019 0.029,-0.03c7.177,-6.838 14.554,-14.144 20.385,-20.498c9.795,-10.688 38.808,-19.83 61.62,-25.665c13.527,-7.284 26.916,-14.238 39.893,-20.58c1.317,-0.649 2.679,-1.276 4.064,-1.895c24.128,-17.803 67.661,-22.059 101.441,-22.34c27.312,-2.755 55.379,-4.094 80.947,-4.845c18.463,-3.171 42.663,-6.365 67.506,-6.931c24.693,-0.567 56.684,3.19 83.451,7.295c26.151,1.734 55.835,3.982 87.389,5.663c20.144,-1.966 45.469,-3.952 65.817,-3.952c18.647,0 40.317,2.818 58.241,5.847c26.308,0.394 53.159,3.393 79.189,7.986c26.059,0.841 57.166,2.807 71.851,7.314c13.209,4.064 28.7,13.709 41.272,22.738c25.852,9.209 46.341,18.321 58.267,24.997c3.855,2.158 7.664,4.477 11.436,6.931c12.675,4.267 24.974,9.221 32.329,14.257c9.199,6.301 13.828,17.345 16.131,27.5c32.702,36.447 50.835,78.485 33.152,100.188c13.713,22.847 -4.199,42.395 -17.176,52.629c-1.03,8.076 -1.925,16.272 -3.155,24.235Z" style="fill:#8d5233;fill-rule:nonzero;"/><path d="M629.032,373.423c-41.109,17.33 -124.881,69.351 -107.734,107.179c17.147,37.828 -5.031,79.258 5.808,97.268c10.842,18.013 15.374,71.152 93.209,89.166c77.832,18.013 192.298,36.927 255.533,50.437c63.238,13.51 232.331,9.007 303.609,-9.007c71.278,-18.013 178.197,-45.033 224.644,-54.04c46.444,-9.007 119.532,-42.331 118.574,-89.166c-0.955,-46.835 13.32,-87.364 12.862,-105.378c-0.459,-18.013 -62.386,-79.258 -112.55,-93.669c-50.164,-14.411 -144.896,-54.04 -206.608,-62.146c-61.715,-8.106 -204.52,11.709 -277.571,8.106c-73.053,-3.599 -239.276,31.523 -309.776,61.249Z" style="fill:#da9157;fill-rule:nonzero;"/><path d="M1453.098,513.923c2.028,6.004 3.528,8.402 3.528,8.402c3.078,5.528 6.207,8.117 6.764,12.121c0,0 0.141,1.94 -0.195,3.794c-1.492,8.26 -11.955,9.697 -22.895,18.614c-3.884,3.167 -13.103,10.68 -18.69,23.672c-1.294,3.006 -2.625,6.297 -5.349,10.902c-1.902,3.212 -4.799,6.826 -10.423,11.656c0,0 -3.864,3.535 -7.684,6.293c-32.426,23.406 -57.871,31.853 -57.871,31.853c-40.142,13.322 -43.312,-6.237 -78.386,7.708c-6.33,2.514 -21.492,9.224 -44.772,17.323c-7.839,2.728 -11.746,4.192 -16.022,5.273c-13.992,3.543 -27.321,4.95 -48.288,6.305c-19.912,1.287 -29.871,1.809 -37.526,1.696c-29.745,-0.439 -30.746,-4.972 -51.555,-3.985c-8.995,0.428 -22.121,3.22 -48.371,8.804c-15.214,3.239 -24.039,5.532 -38.734,6.958c-6.769,0.657 -11.571,0.818 -25.322,1.04c-59.63,0.972 -66.106,-0.473 -72.305,-2.499c-10.573,-3.456 -6.924,-4.211 -32.621,-15.202c-14.66,-6.271 -26.564,-11.311 -40.615,-14.831c-6.973,-1.749 -18.481,-2.766 -41.206,-4.732c-13.805,-1.193 -43.088,-3.584 -65.469,-9.994c-3.086,-0.886 -8.964,-2.424 -15.816,-6.785c-9.965,-6.338 -14.844,-15.536 -56.727,-42.433c-19.249,-12.362 -26.733,-15.885 -31.706,-24.318c-6.686,-11.333 0.158,-16.276 -4.713,-33.325c-3.97,-13.897 -9.606,-14.414 -12.256,-24.318c-4.546,-16.985 15.285,-38.503 20.336,-44.133c26.153,-29.148 44.232,-17.649 67.667,-45.108c3.692,-4.323 10.223,-12.793 21.22,-20.528c6.93,-4.875 8.611,-4.518 19.829,-11.052c16.283,-9.483 15.853,-12.043 26.156,-17.161c7.449,-3.7 14.984,-5.329 30.06,-8.583c17.158,-3.704 20.11,-2.582 29.326,-6.338c2.2,-0.897 7.848,-3.332 15.899,-5.618c3.918,-1.115 6.316,-1.595 8.505,-2.117c10.444,-2.481 16.98,-5.967 23.882,-8.811c3.459,-1.426 15.934,-6.477 29.512,-7.866c18.372,-1.88 17.927,5.077 36.37,2.998c9.546,-1.077 17.27,-3.753 30.063,-5.757c4.259,-0.668 8.941,-1.268 14.901,-1.865c1.867,-0.188 3.256,-0.296 3.491,-0.315c28.001,-2.349 75.859,-10.076 75.859,-10.076c30.321,-4.894 57.014,-0.402 110.402,8.583c54.031,9.093 48.609,14.921 82.897,17.124c23.007,1.479 49.837,0.42 71.774,10.05c7.214,3.167 27.745,13.566 35.656,17.751c1.469,0.777 5.04,2.773 9.658,5.524c10.874,6.477 12.761,9.337 18.905,14.287c1.377,1.111 4.102,3.231 8.906,6.428c20.159,13.412 42.741,26.089 42.744,26.089c27.484,15.428 28.947,15.514 33.849,20.745c6.13,6.541 21.73,21.218 17.465,35.126c-3.003,9.78 -13.576,20.336 -10.102,30.63Z" style="fill:#ffd888;fill-rule:nonzero;"/><path d="M1084.209,514.523c-2.326,4.762 -9.629,8.384 -12.695,9.907c-1.732,0.859 -6.683,3.209 -15.736,5.678c-10.515,2.867 -31.42,8.568 -51.162,5.73c-11.883,-1.708 -17.99,-5.738 -23.394,-9.307c-4.3,-2.841 -11.947,-7.888 -9.824,-14.411c1.058,-3.254 4.216,-5.472 10.532,-9.907c9.21,-6.47 14.428,-10.132 24.487,-11.821c8.246,-1.381 15.764,-0.766 30.163,0.413c9.747,0.799 15.885,1.298 22.482,2.863c15.661,3.708 29.326,12.302 25.147,20.854Z" style="fill:#da9157;fill-rule:nonzero;"/><path d="M1011.319,595.816c-38.286,1.017 -67.996,-6.725 -76.802,-9.239c-22.293,-6.368 -18.71,-10.136 -48.228,-18.614c-18.303,-5.258 -25.462,-5.468 -37.624,-10.808c-3.875,-1.7 -16.972,-7.749 -23.879,-17.413c-5.952,-8.331 -4.136,-14.91 -0.774,-26.025c4.733,-15.657 15.047,-27.298 19.1,-31.617c13.177,-14.032 20.118,-21.425 37.908,-28.221c10.194,-3.895 11.72,-2.923 66.531,-14.411c38.8,-8.132 41.028,-9.247 53.07,-10.208c29.506,-2.353 54.636,1.268 65.412,2.882c22.749,3.404 22.301,6.203 52.536,10.928c22.109,3.456 25.614,2.469 35.151,5.509c13.32,4.244 13.171,8.301 28.285,18.509c14.697,9.926 17.655,7.997 25.671,14.411c14.264,11.412 12.024,23.222 10.32,32.218c-1.383,7.284 -2.894,15.259 -14.098,24.224c-6.044,4.837 -8.459,4.8 -32.24,16.812c-31.216,15.765 -32.713,18.685 -48.865,23.417c-8.249,2.417 -18.773,4.211 -39.821,7.806c-36.7,6.267 -55.055,9.401 -71.654,9.84Zm14.554,-148.542c-29.776,-1.434 -53.517,2.222 -61.035,3.486c-10.621,1.79 -31.87,5.37 -47.634,13.927c-11.634,6.312 -7.518,8.41 -23.406,18.118c-12.95,7.915 -18.205,8.061 -22.06,13.105c-4.205,5.502 0.904,6.83 0.898,17.807c-0.009,11.037 -5.174,11.596 -2.125,17.019c2.3,4.091 11.011,8.189 28.342,16.212c11.02,5.104 20.305,8.875 38.427,16.212c22.442,9.085 25.606,9.96 30.419,10.808c9.454,1.666 21.639,1.636 46.011,1.584c10.805,-0.023 23.649,-0.867 39.13,-2.785l0.003,0c13.934,-2.394 15.899,-4.492 42.308,-13.071c29.828,-9.686 35.263,-9.588 44.585,-15.15c3.935,-2.349 7.994,-6.368 16.109,-14.411c8.611,-8.53 12.928,-12.868 13.538,-16.418c0.599,-3.483 -0.972,-4.349 -9.569,-17.206c-9.77,-14.606 -8.923,-15.251 -13.582,-19.214c-3.416,-2.908 -10.753,-8.999 -25.671,-14.411c-13.495,-4.894 -27.484,-6.931 -54.911,-10.808c-19.513,-2.758 -29.128,-4.289 -39.775,-4.804Z" style="fill:#f8c479;fill-rule:nonzero;"/><path d="M1004.556,659.391c-42.319,0.109 -73.366,-2.766 -100.314,-5.336c-66.522,-6.342 -101.8,-9.708 -119.839,-22.216c-5.937,-4.117 -6.15,-6.552 -17.101,-13.81c-12.11,-8.027 -20.437,-10.74 -38.289,-19.687c-20.901,-10.478 -31.351,-15.713 -34.833,-19.938c-10.048,-12.196 6.069,-15.957 -4.067,-31.748c-4.259,-6.635 -8.02,-7.393 -14.614,-17.488c-2.427,-3.715 -6.749,-10.331 -8.249,-17.619c-2.194,-10.665 2.493,-18.693 9.595,-30.416c9.196,-15.176 14.221,-23.47 29.01,-33.178c12.724,-8.354 17.072,-7.513 48.314,-23.864c26.145,-13.683 20.784,-13.06 33.892,-18.614c7.833,-3.317 17.663,-6.894 76.097,-22.216c22.037,-5.779 33.057,-8.669 35.693,-9.236c58.981,-12.681 118.493,-11.251 139.593,-10.328c30.539,1.332 26.463,3.591 68.381,5.753c39.368,2.03 49.808,0.394 67.147,4.804c17.385,4.421 16.163,8.429 41.378,15.612c15.865,4.518 19.444,3.817 33.654,7.806c21.289,5.974 33.032,13.105 42.087,18.719c16.897,10.47 14.58,13.532 34.15,31.118c21.438,19.263 26.641,17.769 36.798,30.022c12.437,15.004 13.369,27.774 13.708,34.019c0.49,9.007 1.133,20.865 -10.332,35.032c-7.656,9.461 -20.434,17.443 -45.678,33.024c-24.613,15.191 -36.921,22.787 -47.921,27.62c-14.491,6.365 -21.573,7.896 -129.45,34.826c-30.723,7.667 -42.308,10.579 -62.068,13.21c-29.578,3.933 -53.709,4.072 -76.742,4.132Zm32.504,-275.434c-47.545,-1.152 -55.62,9.585 -110.78,10.106c-25.749,0.244 -35.929,-1.981 -50.637,1.801c-14.875,3.828 -12.913,8.279 -33.752,17.413c-18.07,7.922 -22.66,5.937 -37.575,13.21c-17.19,8.38 -12.678,11.787 -29.57,18.614c-15.211,6.147 -21.699,4.53 -31.466,9.975c-8.31,4.635 -5.126,6.646 -13.716,18.846c-8.404,11.93 -12.933,12.106 -15.457,19.503c-2.108,6.173 0.651,7.213 1.77,18.118c1.678,16.358 -4.285,16.37 -0.886,24.825c3.706,9.213 10.185,7.701 24.539,24.018c10.736,12.208 8.496,14.628 18.988,22.216c8.416,6.087 10.946,5.314 25.846,14.238c20.83,12.474 16.946,14.61 29.088,18.963c12.956,4.646 18.988,2.792 56.87,8.226c12.853,1.843 9.399,1.662 55.055,9.607c49.989,8.699 55.146,9.097 62.329,9.007c23.552,-0.293 25.494,-5.258 60.06,-8.406c30.605,-2.788 34.807,0.585 57.84,-1.801c23.692,-2.454 26.007,-6.725 71.634,-21.016c49.169,-15.401 61.316,-15.09 78.675,-25.549c11.792,-7.104 6.373,-7.359 24.748,-20.685c21.653,-15.705 29.876,-15.855 39.064,-25.819c10.673,-11.574 9.236,-21.841 8.401,-27.827c-1.592,-11.393 -8.941,-19.608 -14.99,-26.213c-8.705,-9.498 -12.732,-10.106 -28.924,-23.286c-30.783,-25.057 -26.71,-31.396 -51.377,-40.961c-8.232,-3.194 -8.791,-2.526 -34.672,-11.408c-30.72,-10.542 -29.524,-11.337 -40.151,-13.81c-16.011,-3.723 -24.246,-3.197 -65.492,-6.605c-47.898,-3.952 -39.956,-4.92 -55.459,-5.299Z" style="fill:#f8c479;fill-rule:nonzero;"/></g><g><path d="M1557.918,515.094l-8.464,-1.959l-0.998,12.193c0,0 -34.328,-15.42 -53.724,-15.42c-19.413,0 -60.524,-11.468 -60.524,-11.468c17.161,1.073 40.268,-2.034 63.892,-3.449c1.664,-0.098 3.376,-0.131 5.086,-0.109c22.132,-12.091 9.922,-20.978 -5.097,-26.461c-35.461,0.218 -109.765,-9.401 -145.912,6.083c2.541,-1.246 44.691,-21.623 75.936,-20.366c32.246,1.291 89.173,-9.138 123.949,-25.65l0.47,26.277l0.011,0.075l5.375,60.254Z" style="fill:#8d5233;fill-rule:nonzero;"/><path d="M1345.66,606.391c0,0 21.728,23.417 47.095,28.221c25.365,4.804 43.642,27.62 43.642,27.62l37.529,-19.574c0,0 -21.676,-11.645 -53.018,-14.647c-31.342,-3.006 -56.778,-7.209 -75.248,-21.62Z" style="fill:#8d5233;fill-rule:nonzero;"/><path d="M883.217,728.277c0,0 36.938,-7.806 41.969,-13.81c5.031,-6.004 4.346,-24.618 15.067,-30.022c0,0 -1.784,12.609 8.071,21.916c9.856,9.307 -2.94,24.918 -2.94,24.918l-62.168,-3.002Z" style="fill:#8d5233;fill-rule:nonzero;"/><path d="M610.394,677.84c0,0 5.487,-9.877 28.11,-18.449c22.622,-8.571 56.314,-19.379 75.09,-31.989c0,0 -56.047,17.113 -84.458,19.815c-28.414,2.702 -57.957,15.011 -57.957,15.011l39.216,15.612Z" style="fill:#8d5233;fill-rule:nonzero;"/><path d="M729.027,320.49c0,0 11.092,13.54 36.528,29.035c25.436,15.495 43.229,34.349 43.229,34.349c0,0 -3.571,-14.336 -14.743,-24.626c-11.172,-10.29 -15.145,-27.834 0.149,-22.674c15.294,5.156 23.712,29.121 23.712,29.121c0,0 12.615,-6.477 5.037,-20.231c-7.578,-13.754 -3.677,-36.503 -3.677,-36.503l-90.235,11.529Z" style="fill:#8d5233;fill-rule:nonzero;"/></g></g><path d="M474.022,1591.2c-6.677,-65.835 -66.588,-102.469 -171.804,-87.556c-92.449,13.078 -174.902,1.351 -194.639,-12.647c18.113,-4.053 37.518,-7.723 52.717,-8.834c39.362,-2.897 122.443,0 181.467,-14.336c58.993,-14.283 150.779,35.19 132.258,123.372Z" style="fill:#8d5233;fill-rule:nonzero;"/><path d="M1106.45,1628.221c-45.414,-4.924 -87.286,-2.222 -113.33,17.615c-67.807,51.743 -177.225,193.936 -201.095,107.731c-32.392,-116.805 -97.098,-215.461 -175.16,-146.489c-56.959,50.295 -113.551,82.246 -135.391,62.311c34.715,-12.452 88.319,-43.438 160.919,-118.591c46.963,-48.655 127.864,62.893 149.704,160.149c21.877,97.257 126.794,-40.012 146.497,-62.893c19.665,-22.873 49.473,-59.605 167.857,-19.833Z" style="fill:#8d5233;fill-rule:nonzero;"/><path d="M1630.085,1584.88c-2.952,18.197 -17.118,30.795 -53.124,30.795c-103.26,0 -202.719,-99.092 -223.93,-77.566c-18.742,19.064 6.64,118.929 -32.426,132.878c0.407,-1.253 6.936,-22.588 8.117,-100.154c1.179,-80.122 56.922,-60.769 126.315,-31.808c64.078,26.69 95.068,82.343 175.048,45.855Z" style="fill:#8d5233;fill-rule:nonzero;"/><path d="M1874.564,1434.721c-89.647,47.397 -281.813,-8.639 -276.242,34.462c0,0 -49.803,-64.244 46.372,-49.957c74.115,11.003 159.852,20.321 250.307,-8.639c3.58,6.71 -1.844,14.287 -20.437,24.134Z" style="fill:#8d5233;fill-rule:nonzero;"/><path d="M457.624,990.183c-2.197,-32.484 -4.371,-48.625 0,-134.432c4.371,-85.807 -17.488,-131.67 0,-163.084c17.488,-31.414 56.839,1.505 52.467,59.414c-4.371,57.905 18.352,97.951 67.107,26.442c48.759,-71.505 69.247,-31.463 98.355,140.151c29.108,171.614 57.524,8.579 72.83,-42.905c15.303,-51.484 74.33,151.593 61.213,234.54c-13.117,82.947 -83.21,160.172 -96.258,82.947c-13.048,-77.228 -32.725,-211.66 -61.144,-131.572c-28.419,80.088 -39.351,212.238 -65.584,84.666c-26.234,-127.572 -32.438,-259.519 -67.595,-193.545c-35.154,65.981 -57.539,94.315 -61.391,37.378Z" style="fill:#ab6b39;fill-rule:nonzero;"/><path d="M900.708,824.288c-25.293,25.605 -45.202,54.344 -36.456,111.551c8.746,57.207 -50.282,183.056 -8.746,191.635c41.536,8.579 78.701,11.442 94.004,-60.067c15.303,-71.505 47.672,-22.881 67.558,25.744c19.889,48.625 50.494,143.01 74.542,31.463c24.048,-111.551 77.066,-74.365 95.372,-48.625c18.309,25.744 51.099,3.633 66.402,-75.412c15.303,-79.045 -2.186,-219.195 -41.536,-161.988c-39.351,57.203 -104.935,100.109 -120.237,71.505c-15.303,-28.604 -44.402,-54.344 -103.088,-17.161c-58.689,37.182 -42.612,-114.411 -87.814,-68.646Z" style="fill:#ab6b39;fill-rule:nonzero;"/><path d="M1320.605,781.383c-23.394,19.083 -40.985,68.646 -27.869,114.411c13.117,45.765 43.518,98.368 35.969,146.433c-7.549,48.065 3.382,116.711 33.987,70.946c30.605,-45.765 92.896,-62.926 92.357,-11.442c-0.539,51.484 56.603,102.968 80.499,8.579c23.899,-94.39 -57.84,-125.853 -71.625,-185.916c-13.785,-60.063 -68.45,-204.076 -143.319,-143.01Z" style="fill:#ab6b39;fill-rule:nonzero;"/><path d="M1553.828,692.667c-22.571,-35.111 -64.339,68.694 -51.223,105.881c13.117,37.186 62.532,125.474 55.313,154.265c-7.217,28.791 -11.591,146.061 14.643,108.879c26.234,-37.182 47.104,-62.926 30.109,-143.014c-16.992,-80.088 -11.528,-167.959 -48.842,-226.01Z" style="fill:#ab6b39;fill-rule:nonzero;"/><path d="M516.786,1026.716c0,0 -33.984,148.786 -27.427,202.03c6.557,53.248 22.955,132.619 40.991,100.439c18.036,-32.18 21.315,-99.996 18.036,-148.677c-3.278,-48.677 -7.452,-203.134 -31.6,-153.792Z" style="fill:#b6703e;fill-rule:nonzero;"/><path d="M971.031,1099.426c-11.295,17.413 -21.897,49.341 -18.977,83.664c2.92,34.323 12.758,102.968 29.154,79.371c16.398,-23.601 14.459,-201.013 -10.177,-163.035Z" style="fill:#b6703e;fill-rule:nonzero;"/><path d="M1390.047,735.892c-5.048,17.878 -15.05,149.214 8.875,213.57c23.925,64.356 -10.92,250.985 11.422,229.534c22.341,-21.451 40.377,-86.4 32.18,-140.804c-8.201,-54.408 -31.595,-376.238 -52.476,-302.3Z" style="fill:#b6703e;fill-rule:nonzero;"/><path d="M577.201,677.84c0,0 -5.582,143.585 0,180.054c5.582,36.469 7.22,148.017 7.22,148.017c0,0 22.955,-62.21 19.674,-102.968c-3.278,-40.759 -11.921,-194.48 6.557,-225.102l-33.45,0Z" style="fill:#8d5233;fill-rule:nonzero;"/><path d="M909.066,729.185c0,0 4.919,124.419 21.315,173.761c0,0 6.557,-148.118 18.036,-171.663l-39.351,-2.098Z" style="fill:#8d5233;fill-rule:nonzero;"/><path d="M1437.021,662.228c0,0 3.264,107.712 18.027,139.892c14.766,32.176 24.627,160.889 18.876,203.794c0,0 22.542,-66.48 16.593,-128.701c-5.949,-62.221 -21.119,-200.957 -15.173,-234.559l-38.324,19.574Z" style="fill:#8d5233;fill-rule:nonzero;"/><path d="M396.414,1336.627c-30.892,16.017 -109.309,47.06 -131.168,74.838c-21.862,27.778 142.1,23.342 168.333,28.42c26.234,5.077 83.072,85.165 76.515,113.765c-6.557,28.6 98.378,-2.86 100.563,-74.365c2.186,-71.505 -4.239,-31.568 -61.144,-68.698c-56.91,-37.13 -81.096,-111.288 -153.1,-73.96Z" style="fill:#a26339;fill-rule:nonzero;"/><path d="M1275.245,1605.134c-26.79,-16.876 -104.935,6.706 -128.983,-40.98c-24.048,-47.686 34.5,-56.265 72.996,-61.988c38.499,-5.719 27.567,-82.947 53.801,-120.13c26.234,-37.182 48.931,-37.182 79.12,-5.719c30.189,31.463 115.134,64.214 139.34,63.568c24.203,-0.642 106.412,121.68 66.402,99.133c-40.01,-22.55 -88.106,-65.497 -120.897,-59.755c-32.791,5.742 -120.237,-13.72 -131.168,34.627c-10.934,48.343 28.416,128.431 -30.611,91.245Z" style="fill:#a26339;fill-rule:nonzero;"/></g><g transform="matrix(534.472877,0,0,534.472877,1914.298227,1340.906332)"></g><text x="126.372px" y="1340.906px" style="font-family:'NirmalaText-Bold', 'Nirmala Text', sans-serif;font-weight:700;font-size:534.473px;fill:#1cff2f;">Timber</text></svg>